<svg id="Layer_1" data-name="Layer 1" xmlns="http://www.w3.org/2000/svg" viewBox="0 0 798 798"><defs><style>.cls-1{fill:#49aa26;}.cls-2{fill:#fff;}</style></defs><title>favicon</title><rect class="cls-1" width="798" height="798" rx="100"/><path class="cls-2" d="M217.19,580.7q0-44.87,17.87-79.45,18.41-34.59,49.41-53.51,31.54-19.46,69.91-19.45a128.68,128.68,0,0,1,55.72,13Q438,453.7,454.25,474.77V331H514.7V731H454.25V686.1q-14.72,21.61-41,35.67-25.75,14-59.39,14.05a129.64,129.64,0,0,1-69.39-19.46q-31-20-49.41-55.13Q217.2,625.56,217.19,580.7Zm237.06,1.08q0-30.81-12.61-53.5-12.09-22.71-32.07-34.6a84.06,84.06,0,0,0-86.2,0q-20,11.35-32.59,34.05-12.09,22.17-12.09,53t12.09,54Q303.4,658,323.37,670.42a84.61,84.61,0,0,0,43.1,11.89,82.74,82.74,0,0,0,43.1-11.89q20-11.89,32.07-34.59Q454.26,612.6,454.25,581.78Z" transform="translate(-141 -141)"/><path class="cls-2" d="M569.19,735.45q-16.29,0-27.33-11.35t-11-28.1q0-16.75,11-28.11t27.33-11.35A36,36,0,0,1,596,667.89q11,11.36,11,28.11t-11,28.1A36,36,0,0,1,569.19,735.45Z" transform="translate(-141 -141)"/><path class="cls-2" d="M862.81,618.55q0,22.89-13.25,43-12.75,20.13-38.21,33.87-24.95,13.72-59.41,16.48V749H717.45V711.93q-49.86-4.12-80.63-27T606,624.5h64.73q1.61,17.85,13.27,29.75,11.65,11.44,33.41,14.65V568.21q-35.52-7.79-57.82-15.57A96.15,96.15,0,0,1,621.44,527q-15.39-17.39-15.4-47.6,0-38,30.78-62.71,30.78-25.17,80.63-29.29V350.34h34.49v37.07q46.68,3.66,74.79,25.63,28.68,21.51,32.37,59.5H794.37q-1.57-14.18-12.72-25.17-11.14-11.44-29.71-15.56v98.86q35.53,7.32,57.83,15.56a88.29,88.29,0,0,1,37.66,25.18Q862.82,588.35,862.81,618.55ZM667.58,476.66q0,18.76,12.74,29.3,13.26,10.53,37.13,16.93V430.44q-22.8,2.28-36.6,14.18Q667.61,456.53,667.58,476.66ZM751.94,668.9q23.34-3.2,36.61-16,13.25-13.27,13.25-31.58t-13.25-28.38Q775.8,582.39,751.94,576Z" transform="translate(-141 -141)"/></svg>